<svg width="26" height="26" viewBox="0 0 26 26" fill="none" xmlns="http://www.w3.org/2000/svg">
<path d="M19.533 21.962C19.533 22.66 19.445 25.104 17.002 25.104C15.693 25.104 15.082 22.922 12.204 22.922C10.285 22.922 10.633 23.706 7.057 23.706C3.479 23.706 1.385 21.962 1.385 19.345C1.385 16.203 3.289 17.213 5.224 15.681C7.319 14.023 7.144 12.714 9.762 12.714C11.942 12.714 13.16 15.695 14.647 16.291C16.828 17.163 19.533 20.13 19.533 21.962ZM3.672 11.721C3.729 10.23 3.098 8.967 1.894 8.967C0.631 8.967 0 10.23 0 11.261C0 12.696 0.803 14.072 1.894 14.072C2.984 14.071 3.614 13.213 3.672 11.721ZM12.734 10.344C13.824 10.344 15.258 8.337 15.315 6.845C15.373 5.353 15.201 3.806 13.996 3.806C12.734 3.806 10.956 5.698 10.956 7.247C10.956 8.681 11.645 10.344 12.734 10.344ZM17.094 14.015C18.699 14.015 19.676 12.237 19.733 10.745C19.79 9.253 19.446 7.991 18.241 7.991C16.292 7.991 15.316 9.885 15.316 11.433C15.316 12.867 16.004 14.015 17.094 14.015ZM22.198 12.811C20.248 12.811 19.101 15.046 19.101 16.596C19.101 18.031 20.018 19.063 21.109 19.063C22.714 19.063 23.748 17.458 23.804 15.966C23.861 14.473 23.402 12.811 22.198 12.811ZM6.712 10.86C7.802 10.86 8.662 10.058 8.662 8.565C8.662 6.042 9.808 3.518 8.605 3.518C6.195 3.518 4.818 7.016 4.818 8.049C4.818 9.484 5.621 10.86 6.712 10.86ZM2.053 8.109C2.387 8.2 2.699 8.369 2.69 7.897C2.675 7.16 2.751 5.957 2.387 5.926C2.17 5.909 1.563 7.173 1.389 7.801C1.227 8.398 1.668 8.005 2.053 8.109ZM8.846 2.325C9.211 2.436 9.55 2.624 9.571 2.177C9.607 1.478 9.776 0.348001 9.372 0.290001C9.134 0.255001 8.367 1.398 8.129 1.977C7.906 2.528 8.425 2.192 8.846 2.325ZM15.312 2.739C15.646 2.83 15.965 2.999 15.95 2.526C15.92 1.677 15.86 0.500001 15.497 0.469001C15.281 0.451001 14.794 1.533 14.621 2.161C14.458 2.759 14.928 2.634 15.312 2.739ZM20.641 5.998C20.975 6.09 21.295 6.259 21.278 5.786C21.249 4.937 21.048 3.348 20.684 3.319C20.468 3.301 20.147 4.564 19.889 5.247C19.671 5.825 20.257 5.894 20.641 5.998ZM24.822 9.556C24.606 9.538 24.263 10.421 24.09 11.05C23.928 11.647 24.371 11.581 24.756 11.686C25.09 11.777 25.409 11.946 25.393 11.474C25.362 10.625 25.186 9.586 24.822 9.556Z" fill="white"/>
</svg>
